# xmcd
#
# Track frame offsets: 
#        150
#        21995
#        43784
#        64493
#        86240
#        108259
#        130062
#        145977
#        162005
#        170109
#        189942
#        209168
#        228505
#        247807
#        262891
#        271008
#        294042
#        310602
#        329612
#        351878
#
# Disc length: 4911 seconds
#
# Revision: 0
# Processed by: cddbd v1.5.2PL0 Copyright (c) Steve Scherf et al.
# Submitted via: ExactAudioCopy v1.3
#
DISCID=26132d14
DTITLE=Guy - Teddy's Jam III (Custom CDS)
DYEAR=1999
DGENRE=R&B
TTITLE0=Teddy's Jam III (Main)
TTITLE1=Teddy's Jam III (TV Track)
TTITLE2=Teddy's Jam III (Instrumental)
TTITLE3=Teddy's Jam III (Acapella)
TTITLE4=Teddy's Jam III (Main Vocal Up Mix)
TTITLE5=Teddy's Jam III (Acapella Up Mix)
TTITLE6=Diamonds (Main)
TTITLE7=Diamonds (Instrumental)
TTITLE8=All Competition (1993 Promo Version)
TTITLE9=U Blow My Mind (Dave Hollister Relyric Verse Version)
TTITLE10=Make U Wet (Featuring Aqil Davidson)
TTITLE11=Booti Call (More Adlib Version)
TTITLE12=Booti Call (Percapella Version)
TTITLE13=Deep (Teddy Riley's Bounce Version)
TTITLE14=LSH (Promo Version)
TTITLE15=Deep In Da Club (Teddy Riley's Remix)
TTITLE16=Deep (Get High Remix)
TTITLE17=Remember The Time (Teddy Riley's Vocal Runs Remix)
TTITLE18=Dance With Me (Eric Sermon and T. Riley Joint Track)
TTITLE19=Number Ones
EXTD=
EXTT0=
EXTT1=
EXTT2=
EXTT3=
EXTT4=
EXTT5=
EXTT6=
EXTT7=
EXTT8=
EXTT9=
EXTT10=
EXTT11=
EXTT12=
EXTT13=
EXTT14=
EXTT15=
EXTT16=
EXTT17=
EXTT18=
EXTT19=
PLAYORDER=
